<svg xmlns="http://www.w3.org/2000/svg" viewBox="0 0 360 200" xmlns:v="https://vecta.io/nano"><style><![CDATA[.B{fill:#aeb5dc}.C{fill:#f3f4ff}.D{fill:#fceed3}.E{fill:#273957}.F{fill:#da876e}]]></style><g fill="#feeeee"><path d="M66.1 129.7S7.35 80.42 53.57 48.12 149.1-.15 235.08 7.93c91.73 8.6 93.44 50.2 76 74.05s.74 24.85 21.86 26.34 39.27 6 16.4 27.34-81.5 66.84-214.7 57.15S0 186.85 0 186.85s104.12-4.72 66.1-57.16z"/><path d="M12 184.75l.2-20.5s7.27-1.86 8.57 0 .37 20.7.37 20.7z"/></g><path d="M27.13 127.53v6.53l-2.24-.2 2.05 1.5-.93 2-2.6-.36 2.05 1.86A19 19 0 0 1 20 149s-1.5-8.95-.37-10.44h2.24l-1.68-1.68 2.24-4.66h2.05l-.75-2.05z" fill="#ffcccb"/><path d="M7.7 134.06s4.94 2.33 6.7 7.27l-1.86 1.3H15s1.87 4.47.56 7.83c0 0-4.56-1-6.15-6.9l1.5-2.05-2.6-.18z" fill="#feeeee"/><g fill="none" stroke-miterlimit="10"><g stroke-width=".69"><path d="M20,149a96.35,96.35,0,0,0-2.83,14" stroke="#ffcccb"/><path d="M14.23 148.22s2.7 12 2.6 16.6l-.1 4.57" stroke="#feeeee"/></g><path d="M36.5 131.78c-3.94-37.9 60.16-75.6 143.18-84.23s153.5 15.08 157.45 53S277 176.1 193.94 184.73c-28 2.9-54.6 2.15-77.68-1.6" stroke="#aeb5dc" stroke-width=".68"/></g><path d="M87.47 20.57l50.5 3.54-.56 41.56-51.44-2.24 1.5-42.86z" class="C"/><path d="M89.52 23.36h9.5l.37 39.33-11-.56 1.1-38.77zm20.88 16.22l22.74.56s-20.97 1.67-22.74-.56z" class="B"/><path d="M79.9 125.84s-3.48 4 1.74 7.7 59.52 38.77 66.6 38.52 52.93-6.83 56.4-7.95 7.46-14.17 7.46-14.17z" class="D"/><path d="M79.9 125.84s58.1 35.16 64.86 34.8 75.05-12.42 75.05-12.42 10.56-30.94 5.22-34.05-16.9-1-16.9-1S76.8 123.35 79.9 125.84z" fill="#f4ddbe"/><path d="M210.36 99.93l2.48-7.33 10.07-12.42s1.67-2.24 4-1.12 14.9-2.24 14.9-2.24.62 1.12.5 4.85L242 89s18 14.3 18.27 26.84-14.73 48.4-16.16 48.83-43 8-45.22 5.1-3.54-7.14.74-17z" fill="#71c58a"/><path d="M233 121.24s34.54-7.08 38.52-6.1 3.48.38 2.86 6.47-4.6 27.7-4.6 27.7a7.6 7.6 0 0 1-5.34 5.47c-4.4 1.12-40.88 6.83-40.88 6.83z" class="D"/><path d="M220.05 157.15l3.48 4.47 9.47-40.38s-6.2.75-7.7 6.6-5.25 29.32-5.25 29.32z" fill="#fff"/><path d="M228.44 88.88l13-.75.56.87s-7.85 1-13.56-.12zm10.43 1.62l6.46 23.36s.32-13.73-6.46-23.36zm-43.1 31.64s-1.6 4.3-3.73 4.3-7.08-2.6-7.08-2.6" class="E"/><path d="M233 121.24l34.92-5.7s6-1.4 6.33 3.9-4.47 29.88-4.47 29.88a6.76 6.76 0 0 1-5.34 5.47c-4.9 1.27-40.88 6.83-40.88 6.83z" class="D"/><path d="M142.14 91.55l45.48-7.46s1.24-1.74 3.23 2.24 6.7 32.8 6.7 32.8l.75 9.94-14.9 15.4-6.47-.5-26.34-15.66z" fill="#d5d4e9"/><path fill="#e8e7f5" d="M147.86 94.53l39.26-6.46 6.7 28.82-39.76 8.7-6.2-31.06z"/><path d="M159.4 125.25l30.73-5.1a139.35 139.35 0 0 0-30.73 5.11zm21 17.18s-.74 6.2 1.87 7.83 10.56 1.5 10.56 1.5L188 143.3l5.35-14.8s-12.8 6.9-12.94 13.92z" class="E"/><path d="M142.14 91.55l6.7 38.02 28.08 14.4-26.34-15.66-8.45-36.77z" class="B"/><path d="M158.1 136.87s-.1 2.23 1.68 2.6 11.18-.94 11.18-.94 2.05 3.17 2.8 3.17 3.35.38 3.35.38l2.6 1.5 3.54-7.1s-9.5-5.87-11-6.33-5.5-2.15-8.38.18-6.06 5.66-5.78 6.53z" class="F"/><path d="M278.42 46.1s-1.5-4.75 2.42-4.84 47.34.18 47.34.18a7.15 7.15 0 0 1 1.3 4.85z" class="B"/><path d="M278.04 75.73l51.63-.93-.2-28.5-51.06-.2-.38 29.63z" class="C"/><path d="M289.25 58.16H302s-11.7 1.4-12.75 0zm0 4.14H302s-11.7 1.4-12.75 0zm0 5.54H302s-11.7 1.4-12.75 0zm-251.45 5V66.5h38.03v5.78l-38.03.56z" class="B"/><path d="M75.45 93.72l.38-21.43-38.03.56-.74 21.24 38.4-.37z" class="C"/><path d="M159.8 27.65l14.16.2-1.12 27.77-13.23-.94.2-27.02z" class="B"/><path d="M172.83 55.6l23.67.18-.18-28.14-22.32.2s-2.2 28.05-1.17 27.77z" class="C"/><path d="M177.5 38.27s11.1-2.14 14.54.2c-.03 0-14.35.84-14.54-.2zm-.57 5.73s11.1-2.15 14.54.18c0-.04-14.35.82-14.54-.18z" class="B"/><path d="M226.76 82.9l-.62-5.22s-14.3 3.36-15.9-11.8l-.37-3.1-3.35-3.85s4.6-3.54 5.6-5.72.5-9.58.5-9.58 18.83 4.8 20 6.48 7.7 6.7 8.2 9.8-.12 10.7-.12 10.7v6.7z" class="F"/><path d="M220.3 38.18s15.22-3.54 24.1 5.34 1.37 25.23-.5 26.6-8.95 3.1-8.95-4c0 0 5.28-4.54 3.35-6.1s-6.2 2.1-6.2 2.1-.06-12.3-1.6-12.3-19-3.85-20.13-7.33-2.6-10.35 9.94-4.32zm-5.53 9.97s6.85.93 7.08 3.45-4.85-3.08-7.08-3.45zm3.53 7.08s-1.82-4.42-3.73-2.88-1.44 6-.18 5.4a2.41 2.41 0 0 0 1.49-2.8c-.38-.95 1.35-.32 2.42.28zm16.92 6.25s2.1 1.5-.65 2.8 1.2-.88.65-2.8zm-24.67 6.45s4.73.45 6.5-1.46c0 0-6.17 1-6.65 0-.35-.78.14 1.46.14 1.46z" class="E"/><path d="M286.13 137.14v-6.33h38.02v5.78l-38.02.55z" class="B"/><path d="M323.77 158.02l.38-21.43-38.02.55-.75 21.25 38.4-.37z" class="C"/><ellipse cx="294.23" cy="142.18" rx="3.98" ry="3.85" class="B"/><path d="M201.43 115.9s-6.1 1.62-5.47 3-5 2.6-1 3.73 5.46-.5 5.46-.5z" class="F"/><path d="M188.74 151.5s8.94 4.84 15-1.74 29.08-34.73 30.7-40.38c.83-2.9-1.6-14.54-6.58-15.16s-10.75-1.68-15.16 3.35-17 26.22-18.64 29.45-6.4 10.2-6.83 13.3-2.7 6.68 1.52 11.18z" class="E"/><path d="M224.58 97.32s-26.77 32.62-27.83 37.9c0 0 27.15-33.92 27.83-37.9z" fill="#71c58a"/><path d="M241.23 156.06s-5.3 10.16-3.35 10.8a4 4 0 0 0 3.54-.56l3.54-9.7z" class="D"/><g class="B"><path d="M110.4 46.5l22.74.56s-20.97 1.68-22.74-.56zm0 4.14l22.74.56s-20.97 1.68-22.74-.56z"/><ellipse cx="121.72" cy="31.13" rx="6.15" ry="4.66"/><path d="M52.57 79.03l-1.1 5.6 7.45-2.24-6.34-3.35zM308 48.46l14.17.2-1.12 20.85-13.23-.93.18-20.1zm-3.74 95.17s11.1-2.15 14.54.18c0 0-14.35.84-14.54-.18zm-.56 5.67s11.1-2.14 14.54.2c0 0-14.35.84-14.54-.2zm-14.45-99.44H302s-11.7 1.4-12.75 0zm0 4.14H302s-11.7 1.4-12.75 0z"/></g></svg>